# xmcd
#
# Track frame offsets:
#	150
#	16940
#	35607
#	52047
#	71012
#	89492
#	108937
#	126895
#	139182
#	155927
#	174587
#	191047
#	209997
#	228487
#	247892
#	265837
#
# Disc length: 3708 seconds
#
# Revision: 1
# Processed by: cddbd v1.5.1PL2 Copyright (c) Steve Scherf et al.
# Submitted via: audiograbber 1.83.01
#
DISCID=f20e7a10
DTITLE=Various Artist - Sc3072
DYEAR=1900
DGENRE=Country
TTITLE0=Strait, George - I Just Want To Dance With You
TTITLE1=Brooks and Dunn and McEntire, Reba - If You See Him If You See Her
TTITLE2=Dixie Chicks - There's Your Trouble
TTITLE3=Yoakam, Dwight - Things Change
TTITLE4=Sawyer Brown - Small Talk
TTITLE5=Cochran, Anita - Will You Be Here
TTITLE6=Davis, Linda - I Wanna Remember This
TTITLE7=Hayes, Wade - When The Wrong One Loves You Right
TTITLE8=Strait, George (Vocal) - I Just Want To Dance With You
TTITLE9=Brooks and Dunn and McEntire, Reba (Vocal) - If You See Him If You See Her
TTITLE10=Dixie Chicks (Vocal) - There's Your Trouble
TTITLE11=Yoakam, Dwight (Vocal) - Things Change
TTITLE12=Sawyer Brown (Vocal) - Small Talk
TTITLE13=Cochran, Anita (Vocal) - Will You Be Here
TTITLE14=Davis, Linda (Vocal) - I Wanna Remember This
TTITLE15=Hayes, Wade (Vocal) - When The Wrong One Loves You Right
EXTD=
EXTT0=
EXTT1=
EXTT2=
EXTT3=
EXTT4=
EXTT5=
EXTT6=
EXTT7=
EXTT8=
EXTT9=
EXTT10=
EXTT11=
EXTT12=
EXTT13=
EXTT14=
EXTT15=
PLAYORDER=
